<svg width="24" height="24" viewBox="0 0 24 24" fill="none" xmlns="http://www.w3.org/2000/svg">
<path d="M2 13.25C2 12.56 2.56 12 3.25 12H5.75C6.44 12 7 12.56 7 13.25V20.75C7 21.44 6.44 22 5.75 22H3.25C2.91848 22 2.60054 21.8683 2.36612 21.6339C2.1317 21.3995 2 21.0815 2 20.75V13.25ZM9.5 8.25C9.5 7.56 10.06 7 10.75 7H13.25C13.94 7 14.5 7.56 14.5 8.25V20.75C14.5 21.44 13.94 22 13.25 22H10.75C10.4185 22 10.1005 21.8683 9.86612 21.6339C9.6317 21.3995 9.5 21.0815 9.5 20.75V8.25ZM17 3.25C17 2.56 17.56 2 18.25 2H20.75C21.44 2 22 2.56 22 3.25V20.75C22 21.44 21.44 22 20.75 22H18.25C17.9185 22 17.6005 21.8683 17.3661 21.6339C17.1317 21.3995 17 21.0815 17 20.75V3.25Z" stroke="#757575" stroke-width="1.5" stroke-linecap="round" stroke-linejoin="round"/>
</svg>
