<svg width="129" height="129" viewBox="0 0 129 129" fill="none" xmlns="http://www.w3.org/2000/svg">
<g id="bi:qr-code-scan" clip-path="url(#clip0_1_2667)">
<g id="Group">
<path id="Vector" d="M0 4.03125C0 2.9621 0.42472 1.93673 1.18073 1.18073C1.93673 0.42472 2.9621 0 4.03125 0L28.2187 0C29.2879 0 30.3133 0.42472 31.0693 1.18073C31.8253 1.93673 32.25 2.9621 32.25 4.03125C32.25 5.1004 31.8253 6.12577 31.0693 6.88177C30.3133 7.63778 29.2879 8.0625 28.2187 8.0625H23.1125C14.8006 8.0625 8.0625 14.8006 8.0625 23.1125V28.2187C8.0625 29.2879 7.63778 30.3133 6.88177 31.0693C6.12577 31.8253 5.1004 32.25 4.03125 32.25C2.9621 32.25 1.93673 31.8253 1.18073 31.0693C0.42472 30.3133 0 29.2879 0 28.2187V4.03125ZM96.75 4.03125C96.75 2.9621 97.1747 1.93673 97.9307 1.18073C98.6867 0.42472 99.7121 0 100.781 0L124.969 0C126.038 0 127.063 0.42472 127.819 1.18073C128.575 1.93673 129 2.9621 129 4.03125V28.2187C129 29.2879 128.575 30.3133 127.819 31.0693C127.063 31.8253 126.038 32.25 124.969 32.25C123.9 32.25 122.874 31.8253 122.118 31.0693C121.362 30.3133 120.937 29.2879 120.937 28.2187V23.1125C120.937 14.8006 114.199 8.0625 105.887 8.0625H100.781C99.7121 8.0625 98.6867 7.63778 97.9307 6.88177C97.1747 6.12577 96.75 5.1004 96.75 4.03125ZM4.03125 96.75C5.1004 96.75 6.12577 97.1747 6.88177 97.9307C7.63778 98.6867 8.0625 99.7121 8.0625 100.781V105.887C8.0625 114.199 14.8006 120.937 23.1125 120.937H28.2187C29.2879 120.937 30.3133 121.362 31.0693 122.118C31.8253 122.874 32.25 123.9 32.25 124.969C32.25 126.038 31.8253 127.063 31.0693 127.819C30.3133 128.575 29.2879 129 28.2187 129H4.03125C2.9621 129 1.93673 128.575 1.18073 127.819C0.42472 127.063 0 126.038 0 124.969V100.781C0 99.7121 0.42472 98.6867 1.18073 97.9307C1.93673 97.1747 2.9621 96.75 4.03125 96.75ZM124.969 96.75C126.038 96.75 127.063 97.1747 127.819 97.9307C128.575 98.6867 129 99.7121 129 100.781V124.969C129 126.038 128.575 127.063 127.819 127.819C127.063 128.575 126.038 129 124.969 129H100.781C99.7121 129 98.6867 128.575 97.9307 127.819C97.1747 127.063 96.75 126.038 96.75 124.969C96.75 123.9 97.1747 122.874 97.9307 122.118C98.6867 121.362 99.7121 120.937 100.781 120.937H105.887C114.199 120.937 120.937 114.199 120.937 105.887V100.781C120.937 99.7121 121.362 98.6867 122.118 97.9307C122.874 97.1747 123.9 96.75 124.969 96.75ZM32.25 36.2812C32.25 34.0549 34.0549 32.25 36.2812 32.25C38.5076 32.25 40.3125 34.0549 40.3125 36.2812C40.3125 38.5076 38.5076 40.3125 36.2812 40.3125C34.0549 40.3125 32.25 38.5076 32.25 36.2812Z" fill="#9B65E4"/>
<path id="Vector_2" d="M56.4375 16.125H16.125V56.4375H56.4375V16.125ZM24.1875 24.1875H48.375V48.375H24.1875V24.1875ZM40.3125 88.6875H32.25V96.75H40.3125V88.6875Z" fill="black"/>
<path id="Vector_3" d="M56.4375 72.5625H16.125V112.875H56.4375V72.5625ZM24.1875 80.625H48.375V104.812H24.1875V80.625ZM88.6875 32.25H96.75V40.3125H88.6875V32.25Z" fill="black"/>
<path id="Vector_4" d="M72.5625 16.125H112.875V56.4375H72.5625V16.125ZM80.625 24.1875V48.375H104.812V24.1875H80.625ZM64.5 64.5V80.625H72.5625V88.6875H64.5V96.75H80.625V80.625H88.6875V96.75H96.75V88.6875H112.875V80.625H88.6875V64.5H64.5ZM80.625 80.625H72.5625V72.5625H80.625V80.625ZM112.875 96.75H104.812V104.812H88.6875V112.875H112.875V96.75ZM80.625 112.875V104.812H64.5V112.875H80.625Z" fill="black"/>
<path id="Vector_5" d="M96.75 72.5625H112.875V64.5H96.75V72.5625Z" fill="black"/>
</g>
<circle id="Ellipse 5" cx="36.1918" cy="36.1917" r="4.65833" fill="black"/>
<path id="Vector 4" d="M2.5083 64.5L127.567 63.425" stroke="#9B65E4" stroke-width="5.01667" stroke-linecap="round" stroke-linejoin="round"/>
</g>
<defs>
<clipPath id="clip0_1_2667">
<rect width="129" height="129" fill="white"/>
</clipPath>
</defs>
</svg>
