<svg width="14" height="14" viewBox="0 0 14 14" fill="none" xmlns="http://www.w3.org/2000/svg">
<g id="bxs:up-arrow">
<path id="Vector" d="M2.63181 1.46666L2.63181 11.9667C2.63215 12.073 2.66147 12.1772 2.71662 12.2681C2.77177 12.3589 2.85066 12.4331 2.9448 12.4824C3.03895 12.5318 3.14477 12.5546 3.2509 12.5483C3.35702 12.542 3.45941 12.5069 3.54706 12.4467L11.1304 7.19674C11.4448 6.97916 11.4448 6.45533 11.1304 6.23716L3.54706 0.98716C3.4596 0.926391 3.35715 0.890755 3.25085 0.884123C3.14455 0.877491 3.03847 0.900117 2.94413 0.949543C2.84978 0.998969 2.77079 1.0733 2.71573 1.16447C2.66067 1.25564 2.63165 1.36015 2.63181 1.46666Z" fill="#9B65E4"/>
</g>
</svg>
