<svg width="19" height="18" viewBox="0 0 19 18" fill="none" xmlns="http://www.w3.org/2000/svg">
<path d="M5.5625 2.25V3.9375M13.4375 2.25V3.9375M2.75 14.0625V5.625C2.75 5.17745 2.92779 4.74823 3.24426 4.43176C3.56072 4.11529 3.98995 3.9375 4.4375 3.9375H14.5625C15.0101 3.9375 15.4393 4.11529 15.7557 4.43176C16.0722 4.74823 16.25 5.17745 16.25 5.625V14.0625M2.75 14.0625C2.75 14.5101 2.92779 14.9393 3.24426 15.2557C3.56072 15.5722 3.98995 15.75 4.4375 15.75H14.5625C15.0101 15.75 15.4393 15.5722 15.7557 15.2557C16.0722 14.9393 16.25 14.5101 16.25 14.0625M2.75 14.0625V8.4375C2.75 7.98995 2.92779 7.56073 3.24426 7.24426C3.56072 6.92779 3.98995 6.75 4.4375 6.75H14.5625C15.0101 6.75 15.4393 6.92779 15.7557 7.24426C16.0722 7.56073 16.25 7.98995 16.25 8.4375V14.0625" stroke="#757575" stroke-width="1.5" stroke-linecap="round" stroke-linejoin="round"/>
</svg>
