<svg width="18" height="18" viewBox="0 0 18 18" fill="none" xmlns="http://www.w3.org/2000/svg">
<path fill-rule="evenodd" clip-rule="evenodd" d="M5.8125 2.25C5.8125 1.83579 5.47671 1.5 5.0625 1.5C4.64829 1.5 4.3125 1.83579 4.3125 2.25V3.1875H3.9375C3.29103 3.1875 2.67105 3.44431 2.21393 3.90143C1.75681 4.35855 1.5 4.97853 1.5 5.625V8.4375V14.0625C1.5 14.709 1.75681 15.329 2.21393 15.7861C2.67105 16.2432 3.29103 16.5 3.9375 16.5H9.66891C9.40346 16.0411 9.20885 15.5361 9.10002 15H3.9375C3.68886 15 3.4504 14.9012 3.27459 14.7254C3.09877 14.5496 3 14.3111 3 14.0625V8.4375C3 8.18886 3.09877 7.9504 3.27459 7.77459C3.4504 7.59877 3.68886 7.5 3.9375 7.5H14.0625C14.3111 7.5 14.5496 7.59877 14.7254 7.77459C14.9012 7.9504 15 8.18886 15 8.4375V9.10002C15.5361 9.20885 16.0411 9.40346 16.5 9.66891V8.4375V5.625C16.5 4.97853 16.2432 4.35855 15.7861 3.90143C15.329 3.44431 14.709 3.1875 14.0625 3.1875H13.6875V2.25C13.6875 1.83579 13.3517 1.5 12.9375 1.5C12.5233 1.5 12.1875 1.83579 12.1875 2.25V3.1875H5.8125V2.25ZM3.9375 4.6875H5.0625H12.9375H14.0625C14.3111 4.6875 14.5496 4.78627 14.7254 4.96209C14.9012 5.1379 15 5.37636 15 5.625V6.1875C14.7057 6.06489 14.3875 6 14.0625 6H3.9375C3.61253 6 3.29426 6.06489 3 6.1875V5.625C3 5.37636 3.09877 5.1379 3.27459 4.96209C3.4504 4.78627 3.68886 4.6875 3.9375 4.6875Z" fill="#757575"/>
<path d="M14 12V14H15.5M17 14C17 14.394 16.9224 14.7841 16.7716 15.1481C16.6209 15.512 16.3999 15.8427 16.1213 16.1213C15.8427 16.3999 15.512 16.6209 15.1481 16.7716C14.7841 16.9224 14.394 17 14 17C13.606 17 13.2159 16.9224 12.8519 16.7716C12.488 16.6209 12.1573 16.3999 11.8787 16.1213C11.6001 15.8427 11.3791 15.512 11.2284 15.1481C11.0776 14.7841 11 14.394 11 14C11 13.2044 11.3161 12.4413 11.8787 11.8787C12.4413 11.3161 13.2044 11 14 11C14.7956 11 15.5587 11.3161 16.1213 11.8787C16.6839 12.4413 17 13.2044 17 14Z" stroke="#757575" stroke-linecap="round" stroke-linejoin="round"/>
</svg>
