<svg width="24" height="24" viewBox="0 0 24 24" fill="none" xmlns="http://www.w3.org/2000/svg">
<path d="M6.16667 2V4.5M17.8333 2V4.5M2 19.5V7C2 6.33696 2.26339 5.70107 2.73223 5.23223C3.20107 4.76339 3.83696 4.5 4.5 4.5H19.5C20.163 4.5 20.7989 4.76339 21.2678 5.23223C21.7366 5.70107 22 6.33696 22 7V19.5M2 19.5C2 20.163 2.26339 20.7989 2.73223 21.2678C3.20107 21.7366 3.83696 22 4.5 22H19.5C20.163 22 20.7989 21.7366 21.2678 21.2678C21.7366 20.7989 22 20.163 22 19.5M2 19.5V11.1667C2 10.5036 2.26339 9.86774 2.73223 9.3989C3.20107 8.93006 3.83696 8.66667 4.5 8.66667H19.5C20.163 8.66667 20.7989 8.93006 21.2678 9.3989C21.7366 9.86774 22 10.5036 22 11.1667V19.5" stroke="white" stroke-width="1.5" stroke-linecap="round" stroke-linejoin="round"/>
</svg>
