<svg width="24" height="24" viewBox="0 0 24 24" fill="none" xmlns="http://www.w3.org/2000/svg">
<path d="M10.3105 16.5376C9.53149 16.4697 8.74121 16.4357 7.94413 16.4357H7.09497C5.7437 16.4357 4.44777 15.8989 3.49228 14.9435C2.53679 13.988 2 12.692 2 11.3408C2 9.9895 2.53679 8.69358 3.49228 7.73809C4.44777 6.78259 5.7437 6.2458 7.09497 6.2458H7.94413C8.74121 6.2458 9.53149 6.21184 10.3105 6.14391M10.3105 16.5376C10.5969 17.6268 10.9717 18.6798 11.4257 19.6886C11.7053 20.3113 11.4936 21.0586 10.9015 21.3994L10.1576 21.8296C9.53376 22.1897 8.73102 21.9621 8.42872 21.3077C7.71122 19.7554 7.16455 18.1299 6.79833 16.4595M10.3105 16.5376C9.86547 14.8412 9.64096 13.0946 9.64245 11.3408C9.64245 9.54508 9.87455 7.80373 10.3105 6.14391M10.3105 16.5376C13.7994 16.8367 17.1969 17.8115 20.3136 19.4078M10.3105 6.14391C13.7994 5.84491 17.1969 4.87008 20.3136 3.27374M20.3136 19.4078C20.18 19.838 20.0362 20.2615 19.8833 20.6815M20.3136 19.4078C20.9295 17.4225 21.3147 15.3729 21.4616 13.2995M20.3136 3.27374C20.1808 2.84564 20.0373 2.42093 19.8833 2M20.3136 3.27374C20.9295 5.25901 21.3147 7.30862 21.4616 9.38204M21.4616 9.38204C22.0221 9.84964 22.3799 10.5539 22.3799 11.3408C22.3799 12.1277 22.0221 12.8319 21.4616 13.2995M21.4616 9.38204C21.5545 10.6862 21.5545 11.9953 21.4616 13.2995" stroke="#757575" stroke-width="1.5" stroke-linecap="round" stroke-linejoin="round"/>
</svg>
