<svg width="24" height="24" viewBox="0 0 24 24" fill="none" xmlns="http://www.w3.org/2000/svg">
<path d="M2 4.72727C2 4.00396 2.28734 3.31026 2.7988 2.7988C3.31026 2.28734 4.00396 2 4.72727 2H7.45455C8.17786 2 8.87156 2.28734 9.38302 2.7988C9.89448 3.31026 10.1818 4.00396 10.1818 4.72727V7.45455C10.1818 8.17786 9.89448 8.87156 9.38302 9.38302C8.87156 9.89448 8.17786 10.1818 7.45455 10.1818H4.72727C4.00396 10.1818 3.31026 9.89448 2.7988 9.38302C2.28734 8.87156 2 8.17786 2 7.45455V4.72727ZM2 16.5455C2 15.8221 2.28734 15.1284 2.7988 14.617C3.31026 14.1055 4.00396 13.8182 4.72727 13.8182H7.45455C8.17786 13.8182 8.87156 14.1055 9.38302 14.617C9.89448 15.1284 10.1818 15.8221 10.1818 16.5455V19.2727C10.1818 19.996 9.89448 20.6897 9.38302 21.2012C8.87156 21.7127 8.17786 22 7.45455 22H4.72727C4.00396 22 3.31026 21.7127 2.7988 21.2012C2.28734 20.6897 2 19.996 2 19.2727V16.5455ZM13.8182 4.72727C13.8182 4.00396 14.1055 3.31026 14.617 2.7988C15.1284 2.28734 15.8221 2 16.5455 2H19.2727C19.996 2 20.6897 2.28734 21.2012 2.7988C21.7127 3.31026 22 4.00396 22 4.72727V7.45455C22 8.17786 21.7127 8.87156 21.2012 9.38302C20.6897 9.89448 19.996 10.1818 19.2727 10.1818H16.5455C15.8221 10.1818 15.1284 9.89448 14.617 9.38302C14.1055 8.87156 13.8182 8.17786 13.8182 7.45455V4.72727ZM13.8182 16.5455C13.8182 15.8221 14.1055 15.1284 14.617 14.617C15.1284 14.1055 15.8221 13.8182 16.5455 13.8182H19.2727C19.996 13.8182 20.6897 14.1055 21.2012 14.617C21.7127 15.1284 22 15.8221 22 16.5455V19.2727C22 19.996 21.7127 20.6897 21.2012 21.2012C20.6897 21.7127 19.996 22 19.2727 22H16.5455C15.8221 22 15.1284 21.7127 14.617 21.2012C14.1055 20.6897 13.8182 19.996 13.8182 19.2727V16.5455Z" stroke="#757575" stroke-width="1.5" stroke-linecap="round" stroke-linejoin="round"/>
</svg>
