<svg width="24" height="24" viewBox="0 0 24 24" fill="none" xmlns="http://www.w3.org/2000/svg">
<path d="M10.16 3.04444C10.26 2.44222 10.7822 2 11.3933 2H12.6078C13.2189 2 13.7411 2.44222 13.8411 3.04444L14.0067 4.03778C14.0844 4.50889 14.4333 4.88667 14.8733 5.07111C15.3156 5.25333 15.8233 5.22889 16.2122 4.95111L17.0311 4.36556C17.272 4.19339 17.5661 4.1123 17.8611 4.13672C18.1562 4.16114 18.433 4.28948 18.6422 4.49889L19.5011 5.35889C19.9344 5.79111 19.99 6.47222 19.6344 6.97L19.0489 7.78889C18.7711 8.17778 18.7467 8.68444 18.93 9.12667C19.1133 9.56778 19.4911 9.91556 19.9633 9.99333L20.9556 10.16C21.5589 10.26 22 10.7822 22 11.3922V12.6078C22 13.2189 21.5589 13.7411 20.9556 13.8411L19.9633 14.0067C19.4911 14.0844 19.1133 14.4322 18.93 14.8733C18.7467 15.3156 18.7711 15.8222 19.0489 16.2111L19.6344 17.0311C19.99 17.5278 19.9333 18.2089 19.5011 18.6422L18.6411 19.5011C18.4319 19.7102 18.1553 19.8384 17.8605 19.8628C17.5658 19.8872 17.2719 19.8063 17.0311 19.6344L16.2111 19.0489C15.8222 18.7711 15.3156 18.7467 14.8744 18.93C14.4333 19.1133 14.0856 19.4911 14.0067 19.9622L13.8411 20.9556C13.7411 21.5578 13.2189 22 12.6078 22H11.3922C10.7811 22 10.26 21.5578 10.1589 20.9556L9.99445 19.9622C9.91556 19.4911 9.56778 19.1133 9.12667 18.9289C8.68444 18.7467 8.17778 18.7711 7.78889 19.0489L6.96889 19.6344C6.47222 19.99 5.79111 19.9333 5.35778 19.5011L4.49889 18.6411C4.28948 18.4318 4.16114 18.1551 4.13672 17.86C4.1123 17.565 4.19339 17.2708 4.36556 17.03L4.95111 16.2111C5.22889 15.8222 5.25444 15.3156 5.07111 14.8733C4.88778 14.4322 4.51 14.0844 4.03778 14.0067L3.04444 13.84C2.44222 13.74 2 13.2178 2 12.6078V11.3922C2 10.7811 2.44222 10.2589 3.04444 10.1589L4.03778 9.99333C4.50889 9.91556 4.88778 9.56778 5.07111 9.12667C5.25444 8.68444 5.23 8.17778 4.95222 7.78889L4.36667 6.96889C4.19451 6.72805 4.11341 6.43392 4.13783 6.13888C4.16225 5.84384 4.29059 5.56704 4.5 5.35778L5.35889 4.49889C5.56815 4.28948 5.84495 4.16114 6.13999 4.13672C6.43503 4.1123 6.72916 4.19339 6.97 4.36556L7.78889 4.95111C8.17778 5.22889 8.68556 5.25333 9.12667 5.07C9.56778 4.88667 9.91556 4.50889 9.99333 4.03778L10.16 3.04444Z" stroke="#757575" stroke-width="1.5" stroke-linecap="round" stroke-linejoin="round"/>
<path d="M15.3346 12.0003C15.3346 12.8844 14.9834 13.7322 14.3583 14.3573C13.7332 14.9825 12.8854 15.3337 12.0013 15.3337C11.1172 15.3337 10.2694 14.9825 9.64428 14.3573C9.01916 13.7322 8.66797 12.8844 8.66797 12.0003C8.66797 11.1163 9.01916 10.2684 9.64428 9.6433C10.2694 9.01818 11.1172 8.66699 12.0013 8.66699C12.8854 8.66699 13.7332 9.01818 14.3583 9.6433C14.9834 10.2684 15.3346 11.1163 15.3346 12.0003Z" stroke="#757575" stroke-width="1.5" stroke-linecap="round" stroke-linejoin="round"/>
</svg>
